<?xml version="1.0" encoding="UTF-8"?>
<svg version="1.1" xmlns="http://www.w3.org/2000/svg" width="500" height="500">
<path d="M0 0 C3.70356053 -0.57868133 5.67619924 0.2514124 8.6875 2.24609375 C25.48619959 13.06906979 44.06873477 20.79626863 63 27 C64.09054688 27.35835938 65.18109375 27.71671875 66.3046875 28.0859375 C118.97201006 44.18230747 183.15626609 44.68056354 234.86401367 24.78955078 C238.95988831 23.27554249 243.13587029 22.01994202 247.3125 20.75 C248.20517578 20.46898437 249.09785156 20.18796875 250.01757812 19.8984375 C250.87416016 19.63804687 251.73074219 19.37765625 252.61328125 19.109375 C253.38454346 18.87186523 254.15580566 18.63435547 254.95043945 18.38964844 C257 18 257 18 260 19 C260.125 24.75 260.125 24.75 259 27 C258.34 27 257.68 27 257 27 C256.62875 27.8971875 256.62875 27.8971875 256.25 28.8125 C254.80807503 31.33586869 253.47450374 32.50030076 251 34 C250.01 34 249.02 34 248 34 C248 34.66 248 35.32 248 36 C236.24713091 41.79366786 224.38511077 46.72384744 212 51 C210.89398438 51.39058594 209.78796875 51.78117187 208.6484375 52.18359375 C201.99379235 54.39321107 195.24816566 55.85235949 188.375 57.1875 C187.51600098 57.35467529 186.65700195 57.52185059 185.77197266 57.6940918 C172.61333848 60.12887816 159.52792102 60.24032106 146.1875 60.25 C144.74727478 60.25151062 144.74727478 60.25151062 143.2779541 60.25305176 C123.77774417 60.23920044 105.73521304 58.60997905 87 53 C85.78699219 52.66871094 84.57398438 52.33742188 83.32421875 51.99609375 C76.33076406 50.08059327 69.67220123 47.82496823 63 45 C61.2720867 44.30935592 59.54291236 43.62185857 57.8125 42.9375 C53.84692307 41.35252217 49.91635055 39.70276111 46 38 C46 37.34 46 36.68 46 36 C45.30390625 35.90332031 44.6078125 35.80664062 43.890625 35.70703125 C29.418492 32.16722575 8.01211195 16.87212008 -1 5 C-0.7734375 2.21484375 -0.7734375 2.21484375 0 0 Z " fill="#EA9C1C" transform="translate(105,300)"/>
<path d="M0 0 C-0.33 7.26 -0.66 14.52 -1 22 C1.97 20.68 4.94 19.36 8 18 C13.08587455 17.05379078 16.89664005 17.42861717 21.5 19.8125 C24.57562832 22.50367478 25.91031349 24.01954954 26.28710938 28.13867188 C26.31514648 30.03456055 26.31514648 30.03456055 26.34375 31.96875 C26.3583728 32.64546753 26.37299561 33.32218506 26.38806152 34.01940918 C26.45023803 36.91069988 26.489905 39.80220274 26.53173828 42.69384766 C26.56549953 44.80654086 26.61060296 46.91878562 26.65625 49.03125 C26.68428711 50.92713867 26.68428711 50.92713867 26.71289062 52.86132812 C26.76335915 56.16135401 26.76335915 56.16135401 29 59 C29 60.32 29 61.64 29 63 C22.4 63 15.8 63 9 63 C8.505 61.02 8.505 61.02 8 59 C8.65049316 58.63140869 9.30098633 58.26281738 9.97119141 57.88305664 C12.26641191 56.13368644 12.26641191 56.13368644 12.48583984 53.21264648 C12.47762207 52.10993408 12.4694043 51.00722168 12.4609375 49.87109375 C12.45707031 48.67162109 12.45320313 47.47214844 12.44921875 46.23632812 C12.42472656 44.98271484 12.40023437 43.72910156 12.375 42.4375 C12.37371094 41.18001953 12.37242187 39.92253906 12.37109375 38.62695312 C12.79091811 32.22390629 12.79091811 32.22390629 10 27 C7.77871445 26.97691403 7.77871445 26.97691403 5.375 27.375 C4.55773437 27.48585937 3.74046875 27.59671875 2.8984375 27.7109375 C2.27195312 27.80632812 1.64546875 27.90171875 1 28 C1 28.66 1 29.32 1 30 C0.34 30 -0.32 30 -1 30 C-0.94807966 34.23016463 -0.85298753 38.45829473 -0.75 42.6875 C-0.73582031 43.88568359 -0.72164062 45.08386719 -0.70703125 46.31835938 C-0.67480469 47.47529297 -0.64257812 48.63222656 -0.609375 49.82421875 C-0.58842773 50.88729248 -0.56748047 51.95036621 -0.54589844 53.0456543 C0.11663782 56.63123177 1.54847662 58.35841949 4 61 C3.505 61.99 3.505 61.99 3 63 C-0.45831586 63.02894547 -3.91660072 63.04678 -7.375 63.0625 C-8.35984375 63.07087891 -9.3446875 63.07925781 -10.359375 63.08789062 C-11.77089844 63.09272461 -11.77089844 63.09272461 -13.2109375 63.09765625 C-14.51490479 63.10551147 -14.51490479 63.10551147 -15.84521484 63.11352539 C-18 63 -18 63 -20 62 C-19.67 60.35 -19.34 58.7 -19 57 C-18.01 56.67 -17.02 56.34 -16 56 C-14.42028302 52.84056604 -14.60953557 49.41467154 -14.4375 45.9375 C-14.3748999 44.70688843 -14.3748999 44.70688843 -14.31103516 43.45141602 C-13.97843792 36.11459239 -13.89246861 28.78119925 -13.875 21.4375 C-13.87040771 20.33720459 -13.86581543 19.23690918 -13.86108398 18.10327148 C-13.86309814 17.07790283 -13.8651123 16.05253418 -13.8671875 14.99609375 C-13.86887939 13.62215454 -13.86887939 13.62215454 -13.87060547 12.22045898 C-13.85589656 9.9595212 -13.85589656 9.9595212 -15 8 C-18.02934491 7.34227572 -18.02934491 7.34227572 -21 7 C-21.33 10.63 -21.66 14.26 -22 18 C-23.65 18.33 -25.3 18.66 -27 19 C-27.46148437 18.278125 -27.92296875 17.55625 -28.3984375 16.8125 C-32.05382651 11.29487994 -32.05382651 11.29487994 -37.65234375 8.265625 C-42.000658 8.24008424 -44.32703633 8.55135756 -48 11 C-48.732246 15.11404258 -48.732246 15.11404258 -48 19 C-43.34289157 22.82067191 -38.25172703 24.38777436 -32.56640625 25.97851562 C-26.58401396 27.79525439 -22.66669006 30.55552125 -19.125 35.75 C-17.28756993 41.05813131 -17.29522182 45.69772461 -18.9375 51.0625 C-23.29523256 57.26896758 -28.54992676 62.12594192 -36 64 C-46.28263552 65.10754011 -53.77901265 63.553574 -63 59 C-63 53.06 -63 47.12 -63 41 C-61.68 41 -60.36 41 -59 41 C-57.359375 43.046875 -57.359375 43.046875 -55.75 45.75 C-52.51100986 50.63616889 -49.70739567 53.43018587 -44 55 C-39.49197342 55.44341245 -37.79008682 55.52672455 -34 53 C-32.53024332 49.45922253 -31.59640015 47.19958846 -32.84375 43.4921875 C-36.12905298 39.69504383 -40.16245221 38.86198991 -44.875 37.4375 C-57.57603857 33.51056483 -57.57603857 33.51056483 -61.8125 27.375 C-63.75659117 21.84968826 -63.78559589 16.45498715 -62 10.875 C-61.67 10.25625 -61.34 9.6375 -61 9 C-60.34 9 -59.68 9 -59 9 C-58.814375 8.4225 -58.62875 7.845 -58.4375 7.25 C-56.08589094 3.5692206 -52.28808287 1.76434872 -48.19921875 0.3984375 C-41.9118157 -0.74066572 -34.22184714 -1.03108092 -28.125 1.0625 C-24.1600398 2.25198806 -20.97664622 1.73890386 -17 1 C-14.93862572 0.61886048 -12.87604389 0.24421251 -10.8125 -0.125 C-9.33716797 -0.40730469 -9.33716797 -0.40730469 -7.83203125 -0.6953125 C-5 -1 -5 -1 0 0 Z " fill="#F0EEEB" transform="translate(141,155)"/>
<path d="M0 0 C4.999301 2.61016137 7.63347345 6.4547957 9.3515625 11.66796875 C11.04568288 19.40313856 10.11500903 26.79178058 6.85546875 33.96875 C6.19546875 34.95875 5.53546875 35.94875 4.85546875 36.96875 C4.19546875 36.96875 3.53546875 36.96875 2.85546875 36.96875 C2.85546875 37.62875 2.85546875 38.28875 2.85546875 38.96875 C2.19546875 38.96875 1.53546875 38.96875 0.85546875 38.96875 C0.85546875 39.62875 0.85546875 40.28875 0.85546875 40.96875 C-6.64771467 44.94206699 -12.8729 46.25506605 -21.14453125 43.96875 C-21.0842986 45.57395004 -20.99544526 47.17809327 -20.89453125 48.78125 C-20.82492187 50.12123047 -20.82492187 50.12123047 -20.75390625 51.48828125 C-19.98080984 54.63518012 -18.68824494 55.11183901 -16.14453125 56.96875 C-16.14453125 58.28875 -16.14453125 59.60875 -16.14453125 60.96875 C-19.97640636 62.2460417 -23.59161442 62.11385286 -27.58203125 62.09375 C-28.34580078 62.09761719 -29.10957031 62.10148437 -29.89648438 62.10546875 C-30.63705078 62.10417969 -31.37761719 62.10289062 -32.140625 62.1015625 C-32.81279053 62.10043457 -33.48495605 62.09930664 -34.17749023 62.09814453 C-36.26620584 61.96074609 -38.1328405 61.53405559 -40.14453125 60.96875 C-39.83203125 58.59375 -39.83203125 58.59375 -39.14453125 55.96875 C-38.15453125 55.30875 -37.16453125 54.64875 -36.14453125 53.96875 C-35.68802993 52.03350211 -35.68802993 52.03350211 -35.75634766 49.78198242 C-35.74689117 48.91735886 -35.73743469 48.05273529 -35.72769165 47.16191101 C-35.73680069 45.75725334 -35.73680069 45.75725334 -35.74609375 44.32421875 C-35.74322357 43.36228104 -35.74035339 42.40034332 -35.73739624 41.40925598 C-35.73535199 39.37073174 -35.74090699 37.33218805 -35.75341797 35.29370117 C-35.76941403 32.17907488 -35.75360844 29.06575667 -35.734375 25.95117188 C-35.7363584 23.97135131 -35.74020406 21.99153155 -35.74609375 20.01171875 C-35.74002106 19.081353 -35.73394836 18.15098724 -35.72769165 17.19242859 C-35.78140348 12.22774481 -36.0571374 9.07054488 -39.14453125 4.96875 C-39.83203125 2.65625 -39.83203125 2.65625 -40.14453125 0.96875 C-34.26941933 -1.57183894 -27.21073087 -2.10478552 -20.984375 -0.4609375 C-18.9621062 0.18070004 -18.9621062 0.18070004 -16.33203125 -0.96875 C-10.49588234 -2.91413297 -5.57383652 -2.32872087 0 0 Z M-21.14453125 7.96875 C-23.62756786 12.52834748 -23.44343883 16.98154228 -23.39453125 22.03125 C-23.40226562 22.83369141 -23.41 23.63613281 -23.41796875 24.46289062 C-23.48293735 30.03778822 -23.48293735 30.03778822 -21.14453125 34.96875 C-17.70246302 37.23738588 -15.91017011 38.03964249 -11.76953125 37.65625 C-10.90328125 37.429375 -10.03703125 37.2025 -9.14453125 36.96875 C-9.14453125 36.30875 -9.14453125 35.64875 -9.14453125 34.96875 C-8.48453125 34.96875 -7.82453125 34.96875 -7.14453125 34.96875 C-3.92125455 26.68032419 -2.59366183 19.52311723 -6.14453125 10.96875 C-8.56261154 8.07582011 -10.96023309 6.16613303 -14.76953125 5.53125 C-17.35961379 6.00837047 -19.00379932 6.41856481 -21.14453125 7.96875 Z " fill="#F3F2EE" transform="translate(331.14453125,254.03125)"/>
<path d="M0 0 C1.66978179 -0.65882547 3.33599991 -1.32670517 5 -2 C10.8517709 -2.92209723 15.78981826 -2.63409191 20.9375 0.4375 C25.43868103 3.90615205 27.7620348 7.45391592 29 13 C29.75401987 20.15442106 29.99278227 27.74640393 26 34 C22.2511407 38.5521863 18.74599723 42.25197072 13 44 C10.2109375 44.265625 10.2109375 44.265625 7.375 44.25 C5.96347656 44.25773437 5.96347656 44.25773437 4.5234375 44.265625 C2 44 2 44 -1 42 C-1 45.96 -1 49.92 -1 54 C-0.34 54 0.32 54 1 54 C1 54.66 1 55.32 1 56 C1.66 56 2.32 56 3 56 C3 57.32 3 58.64 3 60 C-4.26 60 -11.52 60 -19 60 C-19.33 58.68 -19.66 57.36 -20 56 C-19.35546875 55.68804687 -18.7109375 55.37609375 -18.046875 55.0546875 C-14.9050781 51.90089901 -15.31951615 48.34659903 -15.25 44.125 C-15.22252686 43.2489209 -15.19505371 42.3728418 -15.16674805 41.47021484 C-15.08783314 38.64681473 -15.04161646 35.82417892 -15 33 C-14.97953613 32.04351562 -14.95907227 31.08703125 -14.93798828 30.1015625 C-14.88007952 27.27599759 -14.84152567 24.45099927 -14.8125 21.625 C-14.79928711 20.75246582 -14.78607422 19.87993164 -14.77246094 18.98095703 C-14.76582985 13.31247969 -15.50251851 8.83733335 -18.1875 3.75 C-18.455625 3.1725 -18.72375 2.595 -19 2 C-18.67 1.34 -18.34 0.68 -18 0 C-15.671875 -0.66796875 -15.671875 -0.66796875 -12.75 -1.1875 C-11.79609375 -1.36667969 -10.8421875 -1.54585937 -9.859375 -1.73046875 C-6.17240981 -2.07801055 -3.31218026 -1.65609013 0 0 Z M-2 10 C-2.63540598 13.62292235 -2.5095338 17.26460216 -2.5 20.9375 C-2.52835938 21.92685547 -2.55671875 22.91621094 -2.5859375 23.93554688 C-2.59882682 28.72715081 -2.5820979 31.20417072 0.30859375 35.15625 C3.83723334 37.57354737 5.80611485 37.68627212 10 37 C12.90717073 34.78136971 13.83981643 33.48055071 15 30 C15.82859075 18.52499944 15.82859075 18.52499944 12 8 C9.05916436 6.03944291 8.31872048 5.68785455 5 5.625 C3.9790625 5.58246094 3.9790625 5.58246094 2.9375 5.5390625 C0.12404941 6.20839147 -0.50653456 7.57622573 -2 10 Z " fill="#F2F1ED" transform="translate(236,175)"/>
<path d="M0 0 C5.87225993 2.10514978 9.5767887 5.86518305 13 11 C15.04822469 18.9171762 15.16598194 27.78681571 11 35 C7.20668412 40.4302248 3.54790802 44.19368055 -3 46 C-7.62305761 46.4081477 -11.48530675 46.12867331 -16 45 C-15.67 48.63 -15.34 52.26 -15 56 C-14.34 56 -13.68 56 -13 56 C-12.34 57.32 -11.68 58.64 -11 60 C-13 62 -13 62 -15.15478516 62.22705078 C-16.02409668 62.21657715 -16.8934082 62.20610352 -17.7890625 62.1953125 C-18.73007812 62.18886719 -19.67109375 62.18242187 -20.640625 62.17578125 C-22.11789062 62.15064453 -22.11789062 62.15064453 -23.625 62.125 C-24.61757813 62.11597656 -25.61015625 62.10695312 -26.6328125 62.09765625 C-29.08878134 62.07404116 -31.54427168 62.04110799 -34 62 C-34 58 -34 58 -33 56 C-31.515 55.505 -31.515 55.505 -30 55 C-29.80722143 31.48083416 -29.80722143 31.48083416 -31 8 C-32.32 7.34 -33.64 6.68 -35 6 C-32.79147092 2.68720638 -32.46675308 2.52990944 -28.8125 1.75 C-24.63675258 0.92964382 -21.19381557 1.16123689 -17 2 C-14.08967188 2.23093705 -14.08967188 2.23093705 -12.1171875 1.01953125 C-8.27065679 -0.83276491 -4.17165663 -0.42311573 0 0 Z M-15.59399414 9.71459961 C-18.10576441 13.79737118 -17.51213358 18.26303958 -17.5 22.9375 C-17.52835937 23.92685547 -17.55671875 24.91621094 -17.5859375 25.93554688 C-17.59882682 30.72715081 -17.5820979 33.20417072 -14.69140625 37.15625 C-11.16276666 39.57354737 -9.19388515 39.68627212 -5 39 C-1.98030255 36.95966389 -1.09723718 35.2315171 0.3125 31.875 C1.73978805 23.83028552 0.46433977 16.87339859 -4 10 C-6.57990801 7.42009199 -8.50244461 7.68401162 -12.02734375 7.5390625 C-14.15005946 7.84149909 -14.15005946 7.84149909 -15.59399414 9.71459961 Z " fill="#F3F1EE" transform="translate(299,173)"/>
<path d="M0 0 C0.78181641 -0.00773438 1.56363281 -0.01546875 2.36914062 -0.0234375 C13.95277137 0.01527137 13.95277137 0.01527137 17.1875 3.25 C17.26021741 5.60313555 17.27120868 7.95833668 17.25 10.3125 C17.24097656 11.60285156 17.23195312 12.89320313 17.22265625 14.22265625 C17.21105469 15.22167969 17.19945312 16.22070312 17.1875 17.25 C15.5375 17.58 13.8875 17.91 12.1875 18.25 C11.81238281 17.70730469 11.43726563 17.16460937 11.05078125 16.60546875 C7.07017099 10.78164531 7.07017099 10.78164531 1.1875 7.25 C-1.86691894 7.32223288 -4.80851023 7.70679488 -7.8125 8.25 C-9.01004817 11.84264452 -9.14344958 14.47717474 -8.8125 18.25 C-5.12180164 23.3222432 0.86430504 24.5690211 6.54492188 26.51757812 C12.30544667 28.60320309 16.04398311 30.95677859 19.4765625 36.23046875 C21.13971877 40.95492915 20.99954301 46.53633729 19.5703125 51.3125 C16.81211089 56.7800855 11.83563311 60.71895619 6.2421875 63.06640625 C-3.23220812 65.80899446 -11.990542 64.44655641 -20.8125 60.25 C-22.8125 58.25 -22.8125 58.25 -23.0078125 54.3359375 C-22.99450376 52.76550649 -22.97063602 51.19513779 -22.9375 49.625 C-22.92847656 48.82320313 -22.91945312 48.02140625 -22.91015625 47.1953125 C-22.88656223 45.21341477 -22.85069065 43.23167019 -22.8125 41.25 C-21.4925 41.25 -20.1725 41.25 -18.8125 41.25 C-17.1015625 43.296875 -17.1015625 43.296875 -15.4375 46 C-12.65296851 50.17384125 -10.51127627 53.14034535 -5.8125 55.25 C-1.92998223 55.7464288 1.44829001 55.49640333 5.1875 54.25 C6.36414871 50.72005387 6.38600603 47.95544587 6.1875 44.25 C3.98723937 40.94960905 3.25404877 40.6273827 -0.3125 39.3125 C-1.20453125 38.9721875 -2.0965625 38.631875 -3.015625 38.28125 C-4.83677247 37.60976546 -6.6596164 36.94285838 -8.484375 36.28125 C-14.61986767 33.97579215 -19.76541503 31.78587404 -23.1875 25.875 C-24.666118 19.66480442 -24.17460663 13.72035831 -20.8125 8.25 C-18.35426328 5.88570863 -15.72974093 4.0081836 -12.8125 2.25 C-12.25046875 1.87101563 -11.6884375 1.49203125 -11.109375 1.1015625 C-7.46378878 -0.25003239 -3.85391546 -0.03756863 0 0 Z " fill="#F0EFEB" transform="translate(188.8125,234.75)"/>
<path d="M0 0 C5.44000877 5.08741561 6.82829827 10.68641953 7.4375 17.875 C7.3098611 24.02487421 5.33921229 29.67744307 1.25390625 34.30859375 C-5.02386381 40.01673628 -10.27268004 41.7291047 -18.73828125 41.5625 C-26.32629079 40.6553407 -31.97278357 36.88092956 -36.71875 31.03125 C-40.64086057 24.77707369 -40.61788125 18.37444414 -39.875 11.1875 C-38.8360591 8.15198571 -37.59337423 5.92615892 -35.875 3.1875 C-35.215 3.1875 -34.555 3.1875 -33.875 3.1875 C-33.689375 2.61 -33.50375 2.0325 -33.3125 1.4375 C-30.81160174 -2.47694945 -26.70319074 -4.26404278 -22.375 -5.5625 C-13.92640147 -6.40735985 -6.74550721 -5.42202162 0 0 Z M-23.875 4.1875 C-27.11472616 10.69017616 -26.84653617 18.78231547 -25.3046875 25.7734375 C-24.07783499 29.24736724 -22.66865807 31.80874164 -19.875 34.1875 C-16.9045981 35.00910053 -14.71800643 35.35610129 -11.6875 34.75 C-7.78557429 31.38627094 -7.00943874 26.88556473 -6.62109375 21.98046875 C-6.4995792 14.89211973 -6.60553017 9.08737811 -11.125 3.3125 C-13.71257475 0.96460674 -13.71257475 0.96460674 -16.9375 0.6875 C-20.21533963 1.24543015 -21.57586205 1.80624998 -23.875 4.1875 Z " fill="#F2F1ED" transform="translate(283.875,257.8125)"/>
<path d="M0 0 C6.30594733 3.72326204 10.53252832 9.46259441 12.625 16.4375 C13.7633148 23.89978588 12.55441693 29.02595255 8.33984375 35.2734375 C4.20998024 40.48515592 -0.41651285 43.96203925 -7.171875 44.7734375 C-14.17393028 44.86605728 -19.26000125 43.89648919 -25.375 40.4375 C-25.375 39.7775 -25.375 39.1175 -25.375 38.4375 C-26.24125 38.1590625 -26.24125 38.1590625 -27.125 37.875 C-30.5664108 35.67632088 -32.19108333 33.26246154 -33.375 29.4375 C-34.1346974 21.77373937 -34.41997796 15.18890041 -30.375 8.4375 C-22.53792945 -0.45863414 -11.49068224 -5.20081169 0 0 Z M-16.75 7.3125 C-20.05116014 11.62940173 -19.62844974 15.42021648 -19.6875 20.6875 C-19.71650391 21.53441406 -19.74550781 22.38132813 -19.77539062 23.25390625 C-19.8317173 28.82591387 -19.15208436 32.05472103 -15.375 36.4375 C-12.49038937 38.7718558 -12.49038937 38.7718558 -8.875 38.375 C-5.24811744 37.78355131 -5.24811744 37.78355131 -3.5 35 C-2.943125 33.7315625 -2.943125 33.7315625 -2.375 32.4375 C-2.045 31.7775 -1.715 31.1175 -1.375 30.4375 C-1.2499652 27.65474882 -1.18982492 24.90793207 -1.1875 22.125 C-1.16913086 20.98514648 -1.16913086 20.98514648 -1.15039062 19.82226562 C-1.13929985 15.56710614 -1.41395087 12.32084235 -3.375 8.4375 C-4.035 8.4375 -4.695 8.4375 -5.375 8.4375 C-5.375 7.7775 -5.375 7.1175 -5.375 6.4375 C-9.37923591 4.43538204 -13.25123143 4.55031428 -16.75 7.3125 Z " fill="#F2F1EE" transform="translate(204.375,174.5625)"/>
<path d="M0 0 C4.60636566 2.20793843 7.96494021 4.81263505 10.953125 8.99609375 C11.703125 11.24609375 11.703125 11.24609375 11.703125 19.24609375 C3.123125 19.57609375 -5.456875 19.90609375 -14.296875 20.24609375 C-14.07197487 28.60589545 -14.07197487 28.60589545 -11.234375 32.30859375 C-7.44529624 34.80777336 -4.71721243 35.10684911 -0.296875 34.24609375 C2.46754469 32.83850034 2.46754469 32.83850034 4.703125 31.24609375 C5.693125 31.24609375 6.683125 31.24609375 7.703125 31.24609375 C7.90398943 34.96208566 7.8550687 36.0181782 5.703125 39.24609375 C5.043125 39.24609375 4.383125 39.24609375 3.703125 39.24609375 C3.703125 39.90609375 3.703125 40.56609375 3.703125 41.24609375 C-1.93018044 45.16491492 -6.44968707 46.35357049 -13.296875 45.24609375 C-16.21194591 44.15353083 -18.60141698 42.84340221 -21.296875 41.24609375 C-21.296875 40.58609375 -21.296875 39.92609375 -21.296875 39.24609375 C-21.956875 39.24609375 -22.616875 39.24609375 -23.296875 39.24609375 C-23.626875 37.92609375 -23.956875 36.60609375 -24.296875 35.24609375 C-24.956875 35.24609375 -25.616875 35.24609375 -26.296875 35.24609375 C-29.38061282 28.69623462 -29.56878025 20.67369906 -27.57421875 13.73046875 C-22.51126471 2.98962698 -11.77588166 -3.86521286 0 0 Z M-14.296875 9.24609375 C-14.296875 10.56609375 -14.296875 11.88609375 -14.296875 13.24609375 C-12.33883993 13.29998462 -10.38038591 13.33883592 -8.421875 13.37109375 C-7.33132813 13.39429688 -6.24078125 13.4175 -5.1171875 13.44140625 C-2.1597699 13.54669909 -2.1597699 13.54669909 -0.296875 11.24609375 C-1.29417636 8.75284035 -1.94762031 7.47141936 -4.234375 5.99609375 C-8.89910417 4.2998286 -10.94369874 5.98354388 -14.296875 9.24609375 Z " fill="#F4F2EE" transform="translate(343.296875,173.75390625)"/>
<path d="M0 0 C0.33 3.63 0.66 7.26 1 11 C-0.65 11.33 -2.3 11.66 -4 12 C-4.2475 11.030625 -4.495 10.06125 -4.75 9.0625 C-5.63030569 5.96045299 -5.63030569 5.96045299 -7.6875 5.125 C-10.79753308 4.9568901 -13.88638952 4.94012288 -17 5 C-18.33333333 8 -18.33333333 8 -17 11 C-13.59724567 13.0416526 -10.22165164 14.23221631 -6.4375 15.3125 C-1.67219134 16.82325553 0.21174491 18.90475033 3 23 C4.7929489 26.58589781 4.07718635 30.23583214 3 34 C-0.0863674 38.88674838 -3.38920535 42.31923332 -9 44 C-16.54579328 44.74395145 -23.18253308 44.40873346 -30 41 C-31.18306728 38.63386544 -31.13354608 37.13219264 -31.125 34.5 C-31.12757813 33.7059375 -31.13015625 32.911875 -31.1328125 32.09375 C-31 30 -31 30 -30 28 C-26.64525899 28.59114379 -24.87172235 29.71225441 -22.375 32 C-19.09413348 34.98000103 -17.35859807 36.1348161 -12.875 36.0625 C-10.956875 36.0315625 -10.956875 36.0315625 -9 36 C-8.67 34.02 -8.34 32.04 -8 30 C-11.95892146 26.72463332 -16.27200751 25.20048258 -21.02734375 23.37890625 C-24.1618826 21.9249086 -26.470951 20.34807948 -29 18 C-30.55806622 13.32580133 -30.49692753 9.49078259 -28.9375 4.8125 C-22.38624176 -4.69739099 -9.85662475 -3.75061825 0 0 Z " fill="#F5F4EF" transform="translate(420,175)"/>
<path d="M0 0 C2.8526949 3.73912551 2.04996132 7.50288782 1.53125 11.94140625 C-0.66256857 24.57199402 -6.28414667 36.48949409 -16.10546875 44.890625 C-18 46 -18 46 -22 46 C-22.28654758 40.38660631 -21.31706955 36.05595834 -19.5625 30.75 C-17.49015561 24.16062054 -16.16505471 17.94730291 -16 11 C-19.38578041 9.30710979 -23.21621285 9.8551399 -26.9375 9.875 C-27.79255127 9.87693359 -28.64760254 9.87886719 -29.52856445 9.88085938 C-35.72544875 9.92306689 -41.84692729 10.22568074 -48 11 C-48.33 9.35 -48.66 7.7 -49 6 C-38.08209096 -2.79498228 -12.77837667 -5.9221424 0 0 Z " fill="#EDA42A" transform="translate(389,303)"/>
<path d="M0 0 C0.99 0 1.98 0 3 0 C4.60725635 3.21451269 4.05748185 6.43612536 4 10 C5.546875 9.938125 5.546875 9.938125 7.125 9.875 C10.93141864 9.9977877 13.56913234 10.3662535 17 12 C17.9375 14.0625 17.9375 14.0625 18 16 C17 17 17 17 13.83984375 17.09765625 C12.55207031 17.08605469 11.26429688 17.07445312 9.9375 17.0625 C8.64714844 17.05347656 7.35679687 17.04445313 6.02734375 17.03515625 C5.02832031 17.02355469 4.02929688 17.01195312 3 17 C3.08069751 21.27161792 3.19355745 25.54178934 3.3125 29.8125 C3.33505859 31.02744141 3.35761719 32.24238281 3.38085938 33.49414062 C3.4340332 35.23920898 3.4340332 35.23920898 3.48828125 37.01953125 C3.51446533 38.09307861 3.54064941 39.16662598 3.56762695 40.27270508 C3.78917445 43.00899382 3.78917445 43.00899382 5.36328125 44.86914062 C7.85523054 46.59090511 9.74578585 46.06819242 12.6875 45.6875 C13.68136719 45.56761719 14.67523438 45.44773437 15.69921875 45.32421875 C16.45847656 45.21722656 17.21773437 45.11023438 18 45 C18 46.32 18 47.64 18 49 C16.56429734 49.81567174 15.12636566 50.62742093 13.6875 51.4375 C12.88699219 51.88996094 12.08648437 52.34242188 11.26171875 52.80859375 C6.94888007 55.08046905 2.81020596 55.68583015 -2 55 C-5.55294876 52.83733554 -7.52058229 50.85913626 -9 47 C-9.22705078 43.79199219 -9.22705078 43.79199219 -9.1953125 40.046875 C-9.19106766 39.05654266 -9.19106766 39.05654266 -9.18673706 38.04620361 C-9.17558415 35.94728103 -9.15048946 33.84879258 -9.125 31.75 C-9.11496384 30.32292285 -9.1058391 28.89583898 -9.09765625 27.46875 C-9.07566111 23.97902672 -9.04116536 20.48955577 -9 17 C-11.31 16.67 -13.62 16.34 -16 16 C-15.796875 13.65234375 -15.796875 13.65234375 -15 11 C-12.890625 9.62890625 -12.890625 9.62890625 -10.25 8.5625 C-6.75091389 6.99514902 -4.39930215 5.75050836 -2.0625 2.6875 C-1.381875 1.800625 -0.70125 0.91375 0 0 Z " fill="#F2F0EC" transform="translate(225,244)"/>
<path d="M0 0 C0.66 1.65 1.32 3.3 2 5 C3.11375 4.360625 4.2275 3.72125 5.375 3.0625 C9.59600961 0.63932782 12.02473214 -0.108158 17 0 C19.01124138 4.02248275 18.21604913 8.25733112 17 12.4375 C16.67 13.283125 16.34 14.12875 16 15 C14.9790625 14.505 14.9790625 14.505 13.9375 14 C9.43702233 12.4679225 5.49812495 12.50062502 1 14 C1.05201794 17.56367709 1.14712681 21.12495681 1.25 24.6875 C1.26417969 25.69490234 1.27835937 26.70230469 1.29296875 27.74023438 C1.48673009 33.61120295 1.88606097 36.55456588 6 41 C5.67 42.32 5.34 43.64 5 45 C-1.6 45 -8.2 45 -15 45 C-15.33 43.68 -15.66 42.36 -16 41 C-15.02885254 40.46959106 -15.02885254 40.46959106 -14.03808594 39.9284668 C-11.70083395 38.10058222 -11.70083395 38.10058222 -11.45410156 34.90551758 C-11.4331543 33.66439209 -11.41220703 32.4232666 -11.390625 31.14453125 C-11.37408875 30.48289474 -11.35755249 29.82125824 -11.34051514 29.13957214 C-11.29200712 27.03045399 -11.27066073 24.92205677 -11.25 22.8125 C-11.22184223 21.38082305 -11.19191505 19.94917972 -11.16015625 18.51757812 C-11.08625107 15.01187607 -11.03669212 11.50631125 -11 8 C-12.32 7.67 -13.64 7.34 -15 7 C-15 5.35 -15 3.7 -15 2 C-9.92523206 0.73694665 -5.27203646 -0.27036084 0 0 Z " fill="#F5F3EF" transform="translate(371,173)"/>
<path d="M0 0 C3.69576288 -0.57746295 5.6617858 0.24428891 8.6640625 2.23828125 C12.7902274 4.89842297 17.02574942 7.22805544 21.375 9.5 C22.48210327 10.0863623 22.48210327 10.0863623 23.61157227 10.68457031 C28.40364543 13.21108023 33.24009056 15.58405286 38.21484375 17.734375 C40.61213848 19.43398877 41.02332157 21.28457117 42 24 C42.66 24.33 43.32 24.66 44 25 C45.625 26.4375 45.625 26.4375 47 28 C47 28.66 47 29.32 47 30 C45.02 30.99 45.02 30.99 43 32 C43.89335797 34.35785318 43.89335797 34.35785318 47.0625 35.125 C48.031875 35.41375 49.00125 35.7025 50 36 C50 36.66 50 37.32 50 38 C50.78697266 38.20302734 50.78697266 38.20302734 51.58984375 38.41015625 C60.35822149 40.84662727 68.63504999 44.4579968 77 48 C73.40600035 49.04255225 71.83291407 48.82744933 68.375 47.3125 C67.49972656 46.93867188 66.62445313 46.56484375 65.72265625 46.1796875 C64.82417969 45.79039062 63.92570312 45.40109375 63 45 C61.27297519 44.30713715 59.54385549 43.61946903 57.8125 42.9375 C53.84692307 41.35252217 49.91635055 39.70276111 46 38 C46 37.34 46 36.68 46 36 C45.30390625 35.90332031 44.6078125 35.80664062 43.890625 35.70703125 C29.418492 32.16722575 8.01211195 16.87212008 -1 5 C-0.7734375 2.21484375 -0.7734375 2.21484375 0 0 Z " fill="#E6971C" transform="translate(105,300)"/>
<path d="M0 0 C-0.495 0.84304688 -0.99 1.68609375 -1.5 2.5546875 C-3.20299367 6.46625109 -3.21561809 8.89349495 -3 13.125 C-2.84894963 20.07331686 -3.46938769 26.47612789 -6 33 C-6.99 33.495 -6.99 33.495 -8 34 C-7.55460971 29.32340193 -7.02117836 24.82296895 -5.9375 20.25 C-5.19105905 17.09283122 -4.78938544 14.26452575 -5 11 C-8.38578041 9.30710979 -12.21621285 9.8551399 -15.9375 9.875 C-16.79255127 9.87693359 -17.64760254 9.87886719 -18.52856445 9.88085938 C-24.72544875 9.92306689 -30.84692729 10.22568074 -37 11 C-37.33 9.35 -37.66 7.7 -38 6 C-33.51226373 2.60312885 -30.34296895 1.37630897 -24.625 0.75 C-23.94179688 0.67410645 -23.25859375 0.59821289 -22.5546875 0.52001953 C-15.04517682 -0.23538517 -7.53668286 -0.18039932 0 0 Z " fill="#EE9F1F" transform="translate(378,303)"/>
<path d="M0 0 C1.65 0 3.3 0 5 0 C5 0.66 5 1.32 5 2 C-6.75286909 7.79366786 -18.61488923 12.72384744 -31 17 C-32.10601562 17.39058594 -33.21203125 17.78117187 -34.3515625 18.18359375 C-41.00620765 20.39321107 -47.75183434 21.85235949 -54.625 23.1875 C-55.48399902 23.35467529 -56.34299805 23.52185059 -57.22802734 23.6940918 C-70.38666152 26.12887816 -83.47207898 26.24032106 -96.8125 26.25 C-98.25272522 26.25151062 -98.25272522 26.25151062 -99.7220459 26.25305176 C-122.61880387 26.23678782 -143.33603062 23.60139277 -165 16 C-161.72143855 14.9136679 -159.77276157 15.10676953 -156.4921875 16.109375 C-155.60184814 16.36831543 -154.71150879 16.62725586 -153.79418945 16.89404297 C-152.83085693 17.17650879 -151.86752441 17.45897461 -150.875 17.75 C-129.81446791 23.52765331 -108.71194625 24.58916198 -86.95947266 24.06933594 C-84.53830244 24.01261161 -82.12082482 23.98728021 -79.69921875 23.9765625 C-53.75352351 23.2519781 -21.91372581 15.60915054 0 1 C0 0.67 0 0.34 0 0 Z " fill="#B7853B" transform="translate(348,334)"/>
<path d="M0 0 C-0.33 0.99 -0.66 1.98 -1 3 C-5.43123421 4.87604605 -10.09980438 5.6935249 -14.8125 6.5625 C-19.26829658 7.04380983 -19.26829658 7.04380983 -23 9 C-25.31817089 9.32097751 -27.63779357 9.51220956 -29.96875 9.71875 C-31.99180593 9.79065837 -31.99180593 9.79065837 -33 11 C-35.60833122 11.21220322 -38.19975832 11.37656339 -40.8125 11.5 C-45.83193135 11.61392122 -45.83193135 11.61392122 -50.73339844 12.50927734 C-54.17407949 13.25418998 -57.61743478 13.14190762 -61.12109375 13.1328125 C-61.9254335 13.13417709 -62.72977325 13.13554169 -63.55848694 13.13694763 C-66.18486617 13.13897738 -68.81113222 13.13264655 -71.4375 13.125 C-72.77699707 13.12317215 -72.77699707 13.12317215 -74.14355469 13.12130737 C-85.93505692 13.10241412 -97.71492064 12.96372715 -109.5 12.5625 C-110.65943115 12.52334473 -111.8188623 12.48418945 -113.01342773 12.44384766 C-118.73167974 12.22084224 -124.33549752 11.81805315 -130 11 C-130.33 10.01 -130.66 9.02 -131 8 C-133.97 7.67 -136.94 7.34 -140 7 C-136.12530547 6.03132637 -134.59056918 6.04696895 -130.80859375 6.7421875 C-129.79128174 6.92104492 -128.77396973 7.09990234 -127.72583008 7.28417969 C-126.64068115 7.47915039 -125.55553223 7.67412109 -124.4375 7.875 C-113.57850906 9.71014688 -103.00241706 10.80477049 -92 11 C-90.73953857 11.0306958 -90.73953857 11.0306958 -89.45361328 11.06201172 C-61.61211542 11.685752 -33.12701197 9.30157603 -6.50390625 0.69921875 C-4 0 -4 0 0 0 Z " fill="#EBB359" transform="translate(333,328)"/>
<path d="M0 0 C3.68567036 -0.57588599 5.64773046 0.23615724 8.640625 2.2265625 C12.89071437 4.96744241 17.26785358 7.35089259 21.75 9.6875 C22.49121094 10.07744141 23.23242188 10.46738281 23.99609375 10.86914062 C27.31522374 12.61213079 30.64322219 14.33045452 34 16 C31.45297384 17.27351308 30.5717055 16.80191925 27.875 16.0625 C27.15054688 15.86785156 26.42609375 15.67320312 25.6796875 15.47265625 C25.12539062 15.31667969 24.57109375 15.16070312 24 15 C24 15.33 24 15.66 24 16 C20.41001317 16.87521124 17.59129488 16.92619994 14 16 C9.10222205 12.70291923 5.04641731 8.2620571 1 4 C0.01 4.495 0.01 4.495 -1 5 C-0.67 3.35 -0.34 1.7 0 0 Z " fill="#E59415" transform="translate(105,300)"/>
<path d="M0 0 C1.5625 1.1875 1.5625 1.1875 3 3 C2.6875 5.6875 2.6875 5.6875 2 8 C2.99 8.66 3.98 9.32 5 10 C4.67 8.68 4.34 7.36 4 6 C4.66 5.67 5.32 5.34 6 5 C6 5.99 6 6.98 6 8 C6.66 8.33 7.32 8.66 8 9 C1.8910135 14.23627414 -2.89448712 15.49095368 -10.83984375 15.40234375 C-15.82777409 14.76729205 -19.76890366 12.62103313 -24 10 C-23.34 9.67 -22.68 9.34 -22 9 C-21.67 8.34 -21.34 7.68 -21 7 C-19.125 6.1875 -19.125 6.1875 -17 6 C-16.5875 6.495 -16.175 6.99 -15.75 7.5 C-13.88411028 9.45228312 -13.88411028 9.45228312 -10.0625 8.75 C-7.34244373 8.29415263 -4.64998897 7.77291345 -2 7 C-1.34 4.69 -0.68 2.38 0 0 Z " fill="#F1EEEA" transform="translate(276,284)"/>
<path d="M0 0 C0.125 5.75 0.125 5.75 -1 8 C-1.66 8 -2.32 8 -3 8 C-3.2475 8.598125 -3.495 9.19625 -3.75 9.8125 C-5.2542674 12.44496795 -6.32507908 13.5540968 -9 15 C-12.75 15.1875 -12.75 15.1875 -16 15 C-16 14.67 -16 14.34 -16 14 C-12.535 13.505 -12.535 13.505 -9 13 C-10.84188612 10.94729537 -10.84188612 10.94729537 -13 10 C-13.33 9.01 -13.66 8.02 -14 7 C-17.63 7 -21.26 7 -25 7 C-25 7.66 -25 8.32 -25 9 C-26.98 9 -28.96 9 -31 9 C-30 7 -30 7 -26.53515625 5.81640625 C-25.04655576 5.39037128 -23.55548919 4.97289065 -22.0625 4.5625 C-20.50898355 4.12416206 -18.95559752 3.68536161 -17.40234375 3.24609375 C-16.64679199 3.03452637 -15.89124023 2.82295898 -15.11279297 2.60498047 C-11.6746172 1.6204878 -8.27766323 0.50654358 -4.8828125 -0.6171875 C-3 -1 -3 -1 0 0 Z M-8 7 C-8.99 8.485 -8.99 8.485 -10 10 C-9.01 10.33 -8.02 10.66 -7 11 C-7.33 9.68 -7.66 8.36 -8 7 Z " fill="#EDA121" transform="translate(365,319)"/>
<path d="M0 0 C0.61875 0.639375 1.2375 1.27875 1.875 1.9375 C2.91344928 2.96160606 3.955667 3.98189454 5 5 C5.64710937 5.64324219 6.29421875 6.28648437 6.9609375 6.94921875 C14.54249547 14.15558017 23.11426644 19.548305 32 25 C32.6079541 25.37495605 33.2159082 25.74991211 33.84228516 26.13623047 C39.1349162 29.38078423 44.04038011 32.17633886 50 34 C50 34.66 50 35.32 50 36 C50.78697266 36.20302734 50.78697266 36.20302734 51.58984375 36.41015625 C60.35822149 38.84662727 68.63504999 42.4579968 77 46 C73.40600035 47.04255225 71.83291407 46.82744933 68.375 45.3125 C67.49972656 44.93867188 66.62445313 44.56484375 65.72265625 44.1796875 C64.82417969 43.79039062 63.92570312 43.40109375 63 43 C61.27297519 42.30713715 59.54385549 41.61946903 57.8125 40.9375 C53.84692307 39.35252217 49.91635055 37.70276111 46 36 C46 35.34 46 34.68 46 34 C45.30390625 33.90332031 44.6078125 33.80664062 43.890625 33.70703125 C29.51232274 30.19017624 9.33741591 15.3792587 0 4 C0 2.68 0 1.36 0 0 Z " fill="#9C6523" transform="translate(105,302)"/>
<path d="M0 0 C4.61492439 0.55012344 8.92733586 1.46903718 13.40136719 2.71386719 C36.78925046 9.12682668 60.90940523 9.57837965 85 10 C85 10.33 85 10.66 85 11 C55.44395858 11.43550159 28.18547771 10.8896413 0 1 C0 0.67 0 0.34 0 0 Z " fill="#9F6D27" transform="translate(183,349)"/>
<path d="M0 0 C5.56650946 0.45627127 11.02791481 1.1519835 16.52978516 2.09326172 C38.86973104 5.86717673 61.41809639 5.11932556 84 5 C84 5.33 84 5.66 84 6 C66.59426613 7.90375214 48.96156498 7.13468438 31.5 6.5625 C30.27796875 6.52334473 29.0559375 6.48418945 27.796875 6.44384766 C21.80555096 6.22666216 15.9325456 5.87372887 10 5 C9.67 4.01 9.34 3.02 9 2 C6.03 1.67 3.06 1.34 0 1 C0 0.67 0 0.34 0 0 Z " fill="#F4C476" transform="translate(193,334)"/>
<path d="M0 0 C1.66666667 0 3.33333333 0 5 0 C5 0.66 5 1.32 5 2 C6.65 2 8.3 2 10 2 C5.92088862 6.4287495 2.9941374 8.81216202 -3.11328125 9.1953125 C-4.16902344 9.17210937 -5.22476563 9.14890625 -6.3125 9.125 C-7.38113281 9.10695312 -8.44976562 9.08890625 -9.55078125 9.0703125 C-10.35902344 9.04710937 -11.16726562 9.02390625 -12 9 C-11.34 8.67 -10.68 8.34 -10 8 C-10.33 7.01 -10.66 6.02 -11 5 C-9.93458984 4.58427734 -9.93458984 4.58427734 -8.84765625 4.16015625 C-7.46900391 3.61681641 -7.46900391 3.61681641 -6.0625 3.0625 C-5.14597656 2.70285156 -4.22945312 2.34320313 -3.28515625 1.97265625 C-1.07581467 1.2003782 -1.07581467 1.2003782 0 0 Z " fill="#EAE7E1" transform="translate(200,210)"/>
<path d="M0 0 C0.99 0.33 1.98 0.66 3 1 C3 3.64 3 6.28 3 9 C4.546875 8.938125 4.546875 8.938125 6.125 8.875 C9.93141864 8.9977877 12.56913234 9.3662535 16 11 C16.875 13.125 16.875 13.125 17 15 C12.91556885 16.53166168 9.20544343 15.63081652 5 15 C4.67 14.01 4.34 13.02 4 12 C2.68 12 1.36 12 0 12 C-1.28571429 3.42857143 -1.28571429 3.42857143 0 0 Z " fill="#F9F7F3" transform="translate(226,245)"/>
<path d="M0 0 C9.8078342 -0.52935837 17.78886689 0.57260163 27 4 C26.01 4.495 26.01 4.495 25 5 C24.53045739 8.04581269 24.53045739 8.04581269 24.375 11.5625 C24.30023438 12.76003906 24.22546875 13.95757812 24.1484375 15.19140625 C24.09945312 16.11824219 24.05046875 17.04507813 24 18 C23.01 18 22.02 18 21 18 C20.34 17.34 19.68 16.68 19 16 C19.66 16 20.32 16 21 16 C20.67 12.37 20.34 8.74 20 5 C13.35751464 3.08389845 6.88940671 2.43632909 0 2 C0 1.34 0 0.68 0 0 Z " fill="#F8F6F1" transform="translate(95,155)"/>
<path d="M0 0 C4.5206665 -0.02468857 9.0412939 -0.04285449 13.56201172 -0.05493164 C15.10043013 -0.05996552 16.63884375 -0.06679308 18.17724609 -0.07543945 C20.38640526 -0.08754639 22.59550126 -0.09323769 24.8046875 -0.09765625 C25.49432587 -0.10281754 26.18396423 -0.10797882 26.89450073 -0.11329651 C31.77225659 -0.11387171 31.77225659 -0.11387171 34 1 C34.39832139 9.32049133 33.91796228 17.11614779 31 25 C30.34 25.33 29.68 25.66 29 26 C29.44539029 21.32340193 29.97882164 16.82296895 31.0625 12.25 C31.80894095 9.09283122 32.21061456 6.26452575 32 3 C28.61421959 1.30710979 24.78378715 1.8551399 21.0625 1.875 C20.20744873 1.87693359 19.35239746 1.87886719 18.47143555 1.88085938 C12.27455125 1.92306689 6.15307271 2.22568074 0 3 C0 2.01 0 1.02 0 0 Z " fill="#A67022" transform="translate(341,311)"/>
<path d="M0 0 C0.125 2.875 0.125 2.875 0 6 C-0.66 6.66 -1.32 7.32 -2 8 C-2 6.02 -2 4.04 -2 2 C-2.62648438 2.2165625 -3.25296875 2.433125 -3.8984375 2.65625 C-4.71570313 2.9346875 -5.53296875 3.213125 -6.375 3.5 C-7.18710937 3.7784375 -7.99921875 4.056875 -8.8359375 4.34375 C-11 5 -11 5 -13 5 C-13.33 5.66 -13.66 6.32 -14 7 C-17.63 7 -21.26 7 -25 7 C-25 7.66 -25 8.32 -25 9 C-26.98 9 -28.96 9 -31 9 C-30 7 -30 7 -26.53515625 5.81640625 C-25.04655576 5.39037128 -23.55548919 4.97289065 -22.0625 4.5625 C-20.50898355 4.12416206 -18.95559752 3.68536161 -17.40234375 3.24609375 C-16.64679199 3.03452637 -15.89124023 2.82295898 -15.11279297 2.60498047 C-11.6746172 1.6204878 -8.27766323 0.50654358 -4.8828125 -0.6171875 C-3 -1 -3 -1 0 0 Z " fill="#E6B053" transform="translate(365,319)"/>
<path d="M0 0 C0.66 0.99 1.32 1.98 2 3 C1.36988999 4.68082825 0.69710546 6.34583369 0 8 C-0.27305958 10.99588003 -0.27305958 10.99588003 -0.1953125 14.17578125 C-0.18886719 15.33271484 -0.18242187 16.48964844 -0.17578125 17.68164062 C-0.15902344 18.87982422 -0.14226562 20.07800781 -0.125 21.3125 C-0.11146484 23.1387793 -0.11146484 23.1387793 -0.09765625 25.00195312 C-0.07413037 28.00150274 -0.04125653 31.00065044 0 34 C-0.33 34 -0.66 34 -1 34 C-1.02505615 33.25314941 -1.0501123 32.50629883 -1.07592773 31.73681641 C-1.19168213 28.36602733 -1.31450128 24.99553217 -1.4375 21.625 C-1.47681641 20.449375 -1.51613281 19.27375 -1.55664062 18.0625 C-1.61948242 16.38027344 -1.61948242 16.38027344 -1.68359375 14.6640625 C-1.72025146 13.62717285 -1.75690918 12.5902832 -1.79467773 11.52197266 C-1.84164223 9.00574834 -1.84164223 9.00574834 -3 7 C-3.969375 6.690625 -4.93875 6.38125 -5.9375 6.0625 C-9 5 -9 5 -11 2 C-7.24455129 0.60262373 -4.02603178 -0.55917108 0 0 Z " fill="#EDEAE3" transform="translate(129,156)"/>
<path d="M0 0 C-0.99 0.66 -1.98 1.32 -3 2 C-3 2.66 -3 3.32 -3 4 C-2.01 3.67 -1.02 3.34 0 3 C0.66 3.33 1.32 3.66 2 4 C1.67 5.98 1.34 7.96 1 10 C0.34 10 -0.32 10 -1 10 C-1 9.34 -1 8.68 -1 8 C-4.63 8 -8.26 8 -12 8 C-12.33 7.01 -12.66 6.02 -13 5 C-8.58490204 0.69258736 -6.42286118 -0.64228612 0 0 Z " fill="#EFEDE8" transform="translate(200,173)"/>
<path d="M0 0 C1.8125 0.8125 1.8125 0.8125 4 2 C5.66140763 2.67966676 7.32700041 3.34938905 9 4 C8.67 4.99 8.34 5.98 8 7 C10.64 7.33 13.28 7.66 16 8 C16 8.33 16 8.66 16 9 C7.65357353 9.71404789 2.15360619 8.3449235 -5 4 C-4.34 3.67 -3.68 3.34 -3 3 C-2.67 2.34 -2.34 1.68 -2 1 C-1.34 0.67 -0.68 0.34 0 0 Z " fill="#DDD9D3" transform="translate(257,290)"/>
<path d="M0 0 C-0.33 0.99 -0.66 1.98 -1 3 C-0.34 3.33 0.32 3.66 1 4 C1.33 4.99 1.66 5.98 2 7 C1.34 7 0.68 7 0 7 C-0.33 8.32 -0.66 9.64 -1 11 C-1.33 9.68 -1.66 8.36 -2 7 C-4.31 6.67 -6.62 6.34 -9 6 C-8.8125 3.625 -8.8125 3.625 -8 1 C-4.72494404 -0.89608503 -3.64512471 -1.21504157 0 0 Z " fill="#ECEBE5" transform="translate(218,254)"/>
<path d="M0 0 C2.97 0.495 2.97 0.495 6 1 C6 1.66 6 2.32 6 3 C6.66 3.33 7.32 3.66 8 4 C7.34 4 6.68 4 6 4 C6 4.66 6 5.32 6 6 C7.32 6.33 8.64 6.66 10 7 C10 7.66 10 8.32 10 9 C9.34 9 8.68 9 8 9 C8 10.98 8 12.96 8 15 C7.67 15 7.34 15 7 15 C6.34 13.02 5.68 11.04 5 9 C1.71303767 8.20046862 0.28976808 7.90341064 -3 9 C-3 8.34 -3 7.68 -3 7 C-2.34 6.67 -1.68 6.34 -1 6 C-1 5.01 -1 4.02 -1 3 C-0.67 2.01 -0.34 1.02 0 0 Z " fill="#E7E5DF" transform="translate(147,174)"/>
<path d="M0 0 C0.66 0.33 1.32 0.66 2 1 C2.02911321 4.0833134 2.04683682 7.16659125 2.0625 10.25 C2.07087891 11.12269531 2.07925781 11.99539062 2.08789062 12.89453125 C2.09111328 13.73886719 2.09433594 14.58320313 2.09765625 15.453125 C2.10289307 16.22817383 2.10812988 17.00322266 2.11352539 17.80175781 C2.00036998 19.99283598 1.60552448 21.89637861 1 24 C0.34 24 -0.32 24 -1 24 C-1.02887236 20.18751574 -1.04675492 16.3750593 -1.0625 12.5625 C-1.07087891 11.47388672 -1.07925781 10.38527344 -1.08789062 9.26367188 C-1.09111328 8.22919922 -1.09433594 7.19472656 -1.09765625 6.12890625 C-1.10289307 5.17056885 -1.10812988 4.21223145 -1.11352539 3.22485352 C-1 1 -1 1 0 0 Z " fill="#FBF9F4" transform="translate(138,189)"/>
<path d="M0 0 C2.97 0.99 5.94 1.98 9 3 C9 3.66 9 4.32 9 5 C9.52464844 5.13535156 10.04929688 5.27070313 10.58984375 5.41015625 C19.35822149 7.84662727 27.63504999 11.4579968 36 15 C32.40600035 16.04255225 30.83291407 15.82744933 27.375 14.3125 C26.49972656 13.93867188 25.62445313 13.56484375 24.72265625 13.1796875 C23.82417969 12.79039062 22.92570312 12.40109375 22 12 C20.27297519 11.30713715 18.54385549 10.61946903 16.8125 9.9375 C12.84692307 8.35252217 8.91635055 6.70276111 5 5 C5 4.34 5 3.68 5 3 C3.35 2.67 1.7 2.34 0 2 C0 1.34 0 0.68 0 0 Z " fill="#A6701E" transform="translate(146,333)"/>
<path d="M0 0 C14.99432123 -0.37433812 14.99432123 -0.37433812 21 2 C22 3 22 3 22.09765625 5.94140625 C22.08605469 7.13636719 22.07445312 8.33132812 22.0625 9.5625 C22.05347656 10.76003906 22.04445312 11.95757812 22.03515625 13.19140625 C22.02355469 14.11824219 22.01195312 15.04507813 22 16 C21.34 16 20.68 16 20 16 C19.67 12.37 19.34 8.74 19 5 C12.57045488 2.91718961 6.73338656 1.54301505 0 1 C0 0.67 0 0.34 0 0 Z " fill="#FBFAF4" transform="translate(184,235)"/>
<path d="M0 0 C4.91350761 1.4603614 9.16044482 3.545384 13.625 6 C19.26856538 9.08410262 19.26856538 9.08410262 25 12 C23 13 23 13 20.9765625 12.44140625 C19.81253906 12.00634766 19.81253906 12.00634766 18.625 11.5625 C15.35582162 10.34339167 13.61643023 10 10 10 C10 9.01 10 8.02 10 7 C9.443125 6.896875 8.88625 6.79375 8.3125 6.6875 C5.50540095 5.85295704 3.39400391 4.68227302 1 3 C0.67 2.01 0.34 1.02 0 0 Z " fill="#ECB35B" transform="translate(114,304)"/>
<path d="M0 0 C0.66 0 1.32 0 2 0 C2.33 1.65 2.66 3.3 3 5 C1.76125579 6.178611 0.5085199 7.34252915 -0.75 8.5 C-1.44609375 9.1496875 -2.1421875 9.799375 -2.859375 10.46875 C-5 12 -5 12 -9 12 C-9.28571429 4.57142857 -9.28571429 4.57142857 -7 1 C-5.84058962 4.47823115 -6.29179116 6.45895578 -7 10 C-5.35 9.34 -3.7 8.68 -2 8 C-2 6.02 -2 4.04 -2 2 C-1.34 2.33 -0.68 2.66 0 3 C0 2.01 0 1.02 0 0 Z " fill="#DD9C3E" transform="translate(376,337)"/>
<path d="M0 0 C0.66 0.66 1.32 1.32 2 2 C1.7222781 7.48670101 0.05691759 11.60969715 -2.4375 16.375 C-2.90639648 17.31666016 -2.90639648 17.31666016 -3.38476562 18.27734375 C-5.72749728 22.86374864 -5.72749728 22.86374864 -8 24 C-8 22.68 -8 21.36 -8 20 C-7.34 20 -6.68 20 -6 20 C-6 17.36 -6 14.72 -6 12 C-5.34 12.66 -4.68 13.32 -4 14 C-1.77343836 9.25645564 -0.53851968 5.27749285 0 0 Z " fill="#E9B55F" transform="translate(387,316)"/>
<path d="M0 0 C-7.6469669 5.09797793 -20.89680691 5.13129605 -30 5 C-32.4375 4.015625 -32.4375 4.015625 -34 3 C-33.00742187 2.96261719 -32.01484375 2.92523438 -30.9921875 2.88671875 C-22.66884529 2.50538683 -14.99031962 1.5766159 -6.890625 -0.4765625 C-4.10894646 -0.98027186 -2.61906236 -0.95354212 0 0 Z " fill="#AC7A33" transform="translate(298,355)"/>
<path d="M0 0 C4.38635714 0.64466158 8.50523537 1.66503097 12.75 2.9375 C18.46164356 4.60491187 24.14070286 5.97394797 30 7 C30 7.33 30 7.66 30 8 C24.72 7.67 19.44 7.34 14 7 C14 6.34 14 5.68 14 5 C12.35 5 10.7 5 9 5 C9 4.34 9 3.68 9 3 C6.03 2.67 3.06 2.34 0 2 C0 1.34 0 0.68 0 0 Z " fill="#EDBB63" transform="translate(162,326)"/>
<path d="M0 0 C0.66 0.66 1.32 1.32 2 2 C4.57061311 2.64767793 4.57061311 2.64767793 7 3 C6.67 3.99 6.34 4.98 6 6 C8.64 6 11.28 6 14 6 C14 6.33 14 6.66 14 7 C10.37 7 6.74 7 3 7 C3 10.96 3 14.92 3 19 C2.67 19 2.34 19 2 19 C2 15.37 2 11.74 2 8 C1.34 8 0.68 8 0 8 C0.33 7.01 0.66 6.02 1 5 C0.34 4.34 -0.32 3.68 -1 3 C-0.67 2.01 -0.34 1.02 0 0 Z " fill="#E9E8E1" transform="translate(225,254)"/>
<path d="M0 0 C3 1 3 1 4.1796875 3.19921875 C5.06563092 6.2240827 5.2007492 8.66890834 5.125 11.8125 C5.10695312 12.78832031 5.08890625 13.76414063 5.0703125 14.76953125 C5.03550781 15.87361328 5.03550781 15.87361328 5 17 C4.01 17.33 3.02 17.66 2 18 C1.34 12.06 0.68 6.12 0 0 Z " fill="#F6F4EE" transform="translate(212,185)"/>
<path d="M0 0 C5.85659906 1.66153012 11.4590134 3.47041916 17 6 C14.13601613 6.76503679 11.31524808 7.30890618 8.375 7.6875 C7.59898437 7.79449219 6.82296875 7.90148437 6.0234375 8.01171875 C4 8 4 8 2 6 C1.28591666 4.01643517 0.61382258 2.01684563 0 0 Z " fill="#E9A02F" transform="translate(145,319)"/>
<path d="M0 0 C2.31 0 4.62 0 7 0 C7.66 2.31 8.32 4.62 9 7 C8.34 7.66 7.68 8.32 7 9 C6.46375 8.360625 5.9275 7.72125 5.375 7.0625 C2.55632807 4.61470596 0.66139268 4.33285388 -3 4 C-2.67 3.34 -2.34 2.68 -2 2 C-1.34 2 -0.68 2 0 2 C0 1.34 0 0.68 0 0 Z " fill="#E8E7DE" transform="translate(267,255)"/>
<path d="M0 0 C0.99 0 1.98 0 3 0 C3 0.66 3 1.32 3 2 C3.66 2.33 4.32 2.66 5 3 C5 3.33 5 3.66 5 4 C10.61 4.33 16.22 4.66 22 5 C22 5.33 22 5.66 22 6 C18.54168414 6.02894547 15.08339928 6.04678 11.625 6.0625 C10.14773437 6.07506836 10.14773437 6.07506836 8.640625 6.08789062 C7.22910156 6.09272461 7.22910156 6.09272461 5.7890625 6.09765625 C4.48509521 6.10551147 4.48509521 6.10551147 3.15478516 6.11352539 C1 6 1 6 -1 5 C-0.67 3.35 -0.34 1.7 0 0 Z " fill="#DFDCD3" transform="translate(122,212)"/>
<path d="M0 0 C0.2475 0.556875 0.495 1.11375 0.75 1.6875 C3.56731522 6.89953315 6.97133577 9.91422877 12 13 C10.375 13.75 10.375 13.75 8 14 C4.97193191 12.36484323 2.67370397 10.91868723 0.625 8.125 C-0.18756857 5.36226686 -0.13010404 2.86228888 0 0 Z " fill="#FBF9F5" transform="translate(176,247)"/>
<path d="M0 0 C2.25 -0.25 2.25 -0.25 5 0 C7.3125 2 7.3125 2 9 4 C8.01 5.485 8.01 5.485 7 7 C4.13275314 6.42655063 3.1385485 6.1385485 1 4 C0.01 4.495 0.01 4.495 -1 5 C-0.67 3.35 -0.34 1.7 0 0 Z " fill="#E3A445" transform="translate(105,300)"/>
<path d="M0 0 C0.33 0 0.66 0 1 0 C1.33 10.23 1.66 20.46 2 31 C1.01 31.33 0.02 31.66 -1 32 C-1.66 31.34 -2.32 30.68 -3 30 C-2.34 29.67 -1.68 29.34 -1 29 C-0.67 19.43 -0.34 9.86 0 0 Z " fill="#ECE9E2" transform="translate(270,199)"/>
<path d="M0 0 C1.33804688 0.04060547 1.33804688 0.04060547 2.703125 0.08203125 C3.37859375 0.11683594 4.0540625 0.15164062 4.75 0.1875 C5.08 0.8475 5.41 1.5075 5.75 2.1875 C5.06292969 2.23648438 4.37585938 2.28546875 3.66796875 2.3359375 C2.31638672 2.44808594 2.31638672 2.44808594 0.9375 2.5625 C0.04417969 2.63210937 -0.84914063 2.70171875 -1.76953125 2.7734375 C-4.49398499 3.05395036 -4.49398499 3.05395036 -7.25 5.1875 C-7.98343428 8.25306598 -7.98343428 8.25306598 -8.25 11.1875 C-8.58 11.1875 -8.91 11.1875 -9.25 11.1875 C-9.640625 5.23046875 -9.640625 5.23046875 -9.25 3.1875 C-6.33806248 0.16771294 -4.09627499 -0.16169507 0 0 Z " fill="#D6D1C7" transform="translate(100.25,160.8125)"/>
<path d="M0 0 C0 0.66 0 1.32 0 2 C1.32 2.66 2.64 3.32 4 4 C4 4.66 4 5.32 4 6 C-0.10899581 4.87204037 -4.07561214 3.66489182 -8 2 C-5.14066998 -0.85933002 -3.8625627 -1.2875209 0 0 Z " fill="#E8E4DD" transform="translate(181,266)"/>
<path d="M0 0 C5.841744 -0.35050464 9.8531808 -0.16727335 15 3 C15 3.66 15 4.32 15 5 C13.68 5.33 12.36 5.66 11 6 C11 5.34 11 4.68 11 4 C10.28972656 3.87882812 9.57945312 3.75765625 8.84765625 3.6328125 C7.92855469 3.46523438 7.00945312 3.29765625 6.0625 3.125 C4.68771484 2.88136719 4.68771484 2.88136719 3.28515625 2.6328125 C2.53105469 2.42398438 1.77695312 2.21515625 1 2 C0.67 1.34 0.34 0.68 0 0 Z " fill="#FAF8F6" transform="translate(267,253)"/>
<path d="M0 0 C0.68707031 0.27714844 1.37414062 0.55429688 2.08203125 0.83984375 C3.43361328 1.38318359 3.43361328 1.38318359 4.8125 1.9375 C5.70582031 2.29714844 6.59914063 2.65679687 7.51953125 3.02734375 C9.3270909 3.73613486 11.15807409 4.3860247 13 5 C13 5.66 13 6.32 13 7 C13.66 7.33 14.32 7.66 15 8 C11.4399399 7.55499249 8.08693386 6.81451951 4.6875 5.6875 C4.01074219 5.46449219 3.33398438 5.24148437 2.63671875 5.01171875 C1 4 1 4 0.26953125 1.89453125 C0.18058594 1.26933594 0.09164062 0.64414063 0 0 Z " fill="#F8F7F3" transform="translate(93,175)"/>
<path d="M0 0 C0.66 0.33 1.32 0.66 2 1 C1.49058038 4.99045366 0.86372213 8.93197772 0.0625 12.875 C-0.09089844 13.63554687 -0.24429687 14.39609375 -0.40234375 15.1796875 C-0.59957031 15.78039062 -0.79679687 16.38109375 -1 17 C-1.66 17.33 -2.32 17.66 -3 18 C-2.41509121 11.85845775 -1.45933748 5.99320151 0 0 Z " fill="#C1873B" transform="translate(373,319)"/>
<path d="M0 0 C2.125 0.9375 2.125 0.9375 4 2 C3.34 3.65 2.68 5.3 2 7 C-0.02045442 6.39816251 -2.02111039 5.72693904 -4 5 C-4.33 4.34 -4.66 3.68 -5 3 C-4.34 3 -3.68 3 -3 3 C-2.67 2.34 -2.34 1.68 -2 1 C-1.34 0.67 -0.68 0.34 0 0 Z " fill="#E6E6DF" transform="translate(257,290)"/>
<path d="M0 0 C1.32 0.33 2.64 0.66 4 1 C2.60478153 4.37177797 1.23717239 6.25017709 -2 8 C-5.75 8.1875 -5.75 8.1875 -9 8 C-9 7.67 -9 7.34 -9 7 C-5.535 6.505 -5.535 6.505 -2 6 C-2.33 5.01 -2.66 4.02 -3 3 C-2.34 3 -1.68 3 -1 3 C-0.67 2.01 -0.34 1.02 0 0 Z " fill="#DCA13D" transform="translate(358,326)"/>
<path d="M0 0 C-0.33 0.99 -0.66 1.98 -1 3 C-5.455 3.495 -5.455 3.495 -10 4 C-10.33 5.32 -10.66 6.64 -11 8 C-11.99 8.495 -11.99 8.495 -13 9 C-12.8125 6.6875 -12.8125 6.6875 -12 4 C-8.14128217 1.07988921 -4.78079008 0 0 0 Z " fill="#E0AA58" transform="translate(353,304)"/>
<path d="M0 0 C0.66 0 1.32 0 2 0 C2.2475 0.969375 2.495 1.93875 2.75 2.9375 C3.1625 3.948125 3.575 4.95875 4 6 C6.03243548 6.96877057 6.03243548 6.96877057 8 7 C8 7.66 8 8.32 8 9 C4.84526281 8.64947365 3.1766466 8.13480924 0.625 6.1875 C-1 4 -1 4 -0.75 1.75 C-0.5025 1.1725 -0.255 0.595 0 0 Z " fill="#FAFAF4" transform="translate(258,285)"/>
<path d="M0 0 C0.33 0 0.66 0 1 0 C1 4.62 1 9.24 1 14 C0.01 13.67 -0.98 13.34 -2 13 C-2 10.03 -2 7.06 -2 4 C-1.34 4 -0.68 4 0 4 C0 2.68 0 1.36 0 0 Z " fill="#FDFDF1" transform="translate(166,196)"/>
<path d="M0 0 C0.33 0 0.66 0 1 0 C1.06058594 0.69867188 1.12117187 1.39734375 1.18359375 2.1171875 C1.26738281 3.02726563 1.35117188 3.93734375 1.4375 4.875 C1.55931641 6.23238281 1.55931641 6.23238281 1.68359375 7.6171875 C1.86989285 10.01110861 1.86989285 10.01110861 3 12 C3 13.32 3 14.64 3 16 C2.01 16.33 1.02 16.66 0 17 C-0.66 17.66 -1.32 18.32 -2 19 C-1.84660156 18.32582031 -1.69320312 17.65164062 -1.53515625 16.95703125 C-0.91516143 13.53122048 -0.6647426 10.16106553 -0.4375 6.6875 C-0.35371094 5.43324219 -0.26992187 4.17898437 -0.18359375 2.88671875 C-0.12300781 1.93410156 -0.06242188 0.98148438 0 0 Z " fill="#DDD9CB" transform="translate(203,191)"/>
<path d="M0 0 C4.59808129 0.53894425 7.86784369 1.76571528 11.875 4.0625 C12.84179688 4.61035156 13.80859375 5.15820312 14.8046875 5.72265625 C15.89136719 6.35494141 15.89136719 6.35494141 17 7 C15 8 15 8 12.28515625 7.109375 C11.22167969 6.66078125 10.15820312 6.2121875 9.0625 5.75 C8.00160156 5.31171875 6.94070313 4.8734375 5.84765625 4.421875 C3.31326532 3.1564178 1.80375029 2.13684703 0 0 Z " fill="#EADCD0" transform="translate(393,194)"/>
<path d="M0 0 C2.475 0.495 2.475 0.495 5 1 C5.33 1.99 5.66 2.98 6 4 C8.31 4 10.62 4 13 4 C12.67 4.66 12.34 5.32 12 6 C7.27536912 5.53680089 3.82942948 4.90108294 0 2 C0 1.34 0 0.68 0 0 Z " fill="#F9F9F5" transform="translate(89,208)"/>
<path d="M0 0 C0.33 0 0.66 0 1 0 C1.05422947 1.4370809 1.09289723 2.87475462 1.125 4.3125 C1.14820313 5.11300781 1.17140625 5.91351563 1.1953125 6.73828125 C1 9 1 9 -1 12 C-1.66 11.34 -2.32 10.68 -3 10 C-2.79296875 7.87109375 -2.79296875 7.87109375 -2.1875 5.4375 C-1.99542969 4.63183594 -1.80335938 3.82617188 -1.60546875 2.99609375 C-1 1 -1 1 0 0 Z " fill="#FAF8F4" transform="translate(208,275)"/>
<path d="M0 0 C0.66 0 1.32 0 2 0 C2 0.66 2 1.32 2 2 C2.66 2 3.32 2 4 2 C4.66 3.32 5.32 4.64 6 6 C4.35 6.33 2.7 6.66 1 7 C1 6.01 1 5.02 1 4 C0.34 3.67 -0.32 3.34 -1 3 C-0.67 2.01 -0.34 1.02 0 0 Z " fill="#FBF8F4" transform="translate(282,227)"/>
<path d="M0 0 C2 2 2 2 2.5 5.5625 C2.665 6.696875 2.83 7.83125 3 9 C3.66 9.33 4.32 9.66 5 10 C3.35 10.66 1.7 11.32 0 12 C0 8.04 0 4.08 0 0 Z " fill="#E49F33" transform="translate(369,335)"/>
<path d="M0 0 C1.5625 1.1875 1.5625 1.1875 3 3 C2.91225183 6.4221787 2.22726163 7.74519151 -0.0625 10.3125 C-0.701875 10.869375 -1.34125 11.42625 -2 12 C-2 10.68 -2 9.36 -2 8 C-1.34 8 -0.68 8 0 8 C0 5.36 0 2.72 0 0 Z " fill="#E4AC4D" transform="translate(381,328)"/>
<path d="M0 0 C1.67542976 0.28604898 3.34385343 0.61781233 5 1 C5.33 1.99 5.66 2.98 6 4 C5.34 4 4.68 4 4 4 C3.67 4.99 3.34 5.98 3 7 C2.71125 6.38125 2.4225 5.7625 2.125 5.125 C1.06279958 2.86674235 1.06279958 2.86674235 -1 1 C-0.67 0.67 -0.34 0.34 0 0 Z " fill="#FBF9F5" transform="translate(304,253)"/>
<path d="M0 0 C3 1 3 1 5 2 C5 2.66 5 3.32 5 4 C4.195625 3.649375 3.39125 3.29875 2.5625 2.9375 C-1.90346108 1.76224708 -5.49837555 2.25973287 -10 3 C-10 2.34 -10 1.68 -10 1 C-6.82587823 -0.58706088 -3.46361333 -0.28477127 0 0 Z " fill="#E1DCD5" transform="translate(191,240)"/>
<path d="M0 0 C0.99 0 1.98 0 3 0 C3.144375 0.78375 3.28875 1.5675 3.4375 2.375 C3.87798925 4.96421018 3.87798925 4.96421018 5 7 C4.0625 9.125 4.0625 9.125 3 11 C2.566875 9.88625 2.566875 9.88625 2.125 8.75 C1.07918522 6.05125691 1.07918522 6.05125691 -0.1875 3.8125 C-0.5896875 2.9153125 -0.5896875 2.9153125 -1 2 C-0.67 1.34 -0.34 0.68 0 0 Z " fill="#ECE3DE" transform="translate(218,175)"/>
<path d="M0 0 C1.15941038 3.47823115 0.70820884 5.45895578 0 9 C0.66 9 1.32 9 2 9 C2 9.66 2 10.32 2 11 C0.68 11 -0.64 11 -2 11 C-2.28571429 3.57142857 -2.28571429 3.57142857 0 0 Z " fill="#B68A47" transform="translate(369,338)"/>
<path d="M0 0 C-0.33 0.99 -0.66 1.98 -1 3 C-4.65257704 4.62336757 -7.19362399 5.46399077 -11 4 C-9.68 3.67 -8.36 3.34 -7 3 C-7 2.34 -7 1.68 -7 1 C-4 0 -4 0 0 0 Z " fill="#E8AC49" transform="translate(333,328)"/>
<path d="M0 0 C1.9375 0.5625 1.9375 0.5625 4 2 C4.75 5.625 4.75 5.625 5 9 C3.5 7.625 3.5 7.625 2 6 C2 5.34 2 4.68 2 4 C1.34 4 0.68 4 0 4 C0 2.68 0 1.36 0 0 Z " fill="#FAF7F1" transform="translate(79,195)"/>
<path d="M0 0 C4 2 8 4 12 6 C8.96666395 6.22893102 6.02633186 6.35414522 3 6 C0.9375 4.125 0.9375 4.125 0 2 C0 1.34 0 0.68 0 0 Z " fill="#F9F9F2" transform="translate(178,287)"/>
<path d="M0 0 C2.125 0.9375 2.125 0.9375 4 2 C4 2.99 4 3.98 4 5 C2.02 5 0.04 5 -2 5 C-2 3.68 -2 2.36 -2 1 C-1.34 0.67 -0.68 0.34 0 0 Z " fill="#E5991E" transform="translate(345,307)"/>
<path d="M0 0 C0.33 0.66 0.66 1.32 1 2 C3.02463255 2.65213292 3.02463255 2.65213292 5 3 C5.33 4.32 5.66 5.64 6 7 C4.02 6.34 2.04 5.68 0 5 C0 3.35 0 1.7 0 0 Z " fill="#DAD8CD" transform="translate(78,209)"/>
<path d="M0 0 C0.66 0 1.32 0 2 0 C1.67 3.96 1.34 7.92 1 12 C-1.00531963 7.98936074 -1.28227139 6.32816129 -1 2 C-0.67 1.34 -0.34 0.68 0 0 Z " fill="#FCFBF5" transform="translate(165,180)"/>
<path d="M0 0 C0 0.66 0 1.32 0 2 C-4.29 1.67 -8.58 1.34 -13 1 C-13 0.67 -13 0.34 -13 0 C-11.58456585 -0.19658808 -10.16755969 -0.38187546 -8.75 -0.5625 C-7.96109375 -0.66691406 -7.1721875 -0.77132813 -6.359375 -0.87890625 C-3.99467126 -1.00027349 -2.2488963 -0.69633257 0 0 Z " fill="#E6A22C" transform="translate(366,304)"/>
<path d="M0 0 C1.98 0.495 1.98 0.495 4 1 C4.33 2.65 4.66 4.3 5 6 C2.525 5.01 2.525 5.01 0 4 C0 2.68 0 1.36 0 0 Z " fill="#E8E5DD" transform="translate(167,290)"/>
<path d="M0 0 C1.98 0.495 1.98 0.495 4 1 C3.34 1.66 2.68 2.32 2 3 C2.99 4.485 2.99 4.485 4 6 C3.67 6.99 3.34 7.98 3 9 C0.9375 6.75 0.9375 6.75 -1 4 C-0.75 1.6875 -0.75 1.6875 0 0 Z " fill="#E0DED7" transform="translate(292,254)"/>
<path d="M0 0 C1.32 0.66 2.64 1.32 4 2 C4 2.66 4 3.32 4 4 C2.02 4 0.04 4 -2 4 C-2.33 3.34 -2.66 2.68 -3 2 C-2.01 1.34 -1.02 0.68 0 0 Z " fill="#EBE9E1" transform="translate(219,231)"/>
<path d="M0 0 C0.78375 0.04125 1.5675 0.0825 2.375 0.125 C1.09437515 1.8324998 -0.24267557 3.49873596 -1.625 5.125 C-2.285 5.125 -2.945 5.125 -3.625 5.125 C-3.955 4.135 -4.285 3.145 -4.625 2.125 C-2.625 0.125 -2.625 0.125 0 0 Z " fill="#ECE5E0" transform="translate(304.625,210.875)"/>
<path d="M0 0 C0.66 0.33 1.32 0.66 2 1 C2 1.66 2 2.32 2 3 C3.32 3.33 4.64 3.66 6 4 C3.36 4.33 0.72 4.66 -2 5 C-2.33 4.01 -2.66 3.02 -3 2 C-2.01 1.34 -1.02 0.68 0 0 Z " fill="#DCDAD1" transform="translate(190,176)"/>
<path d="M0 0 C3.8063457 0.67170806 7.35206816 1.72746564 11 3 C7.67465243 4.10844919 5.37817425 3.84454356 2 3 C2 2.34 2 1.68 2 1 C1.34 0.67 0.68 0.34 0 0 Z " fill="#F1C06E" transform="translate(151,322)"/>
<path d="M0 0 C0.66 0 1.32 0 2 0 C2.33 0.99 2.66 1.98 3 3 C2.67 3.66 2.34 4.32 2 5 C0.68 5 -0.64 5 -2 5 C-1.125 1.125 -1.125 1.125 0 0 Z " fill="#F2EEE6" transform="translate(357,212)"/>
<path d="M0 0 C0 0.66 0 1.32 0 2 C-2.64 2 -5.28 2 -8 2 C-8 1.34 -8 0.68 -8 0 C-2.25 -1.125 -2.25 -1.125 0 0 Z " fill="#FAFAF7" transform="translate(320,292)"/>
<path d="M0 0 C0.66 0 1.32 0 2 0 C4.1385485 2.1385485 4.42655063 3.13275314 5 6 C1.83884224 4.63016497 1.0072908 4.0109362 -1 1 C-0.67 0.67 -0.34 0.34 0 0 Z " fill="#DEDDD3" transform="translate(168,261)"/>
<path d="M0 0 C0.33 0 0.66 0 1 0 C1.66 3.63 2.32 7.26 3 11 C2.01 11.33 1.02 11.66 0 12 C0 8.04 0 4.08 0 0 Z " fill="#FCFAF7" transform="translate(214,191)"/>
<path d="M0 0 C0.99 0 1.98 0 3 0 C3.33 1.32 3.66 2.64 4 4 C2.02 4.99 2.02 4.99 0 6 C0 4.02 0 2.04 0 0 Z " fill="#FAF9F8" transform="translate(279,175)"/>
</svg>
